<?xml version="1.0" encoding="UTF-8"?>
<svg version="1.1" xmlns="http://www.w3.org/2000/svg" width="234" height="31">
<path d="M0 0 C5.49212511 0.13904114 8.31973245 3.72257299 11.95703125 7.47265625 C12.79621094 8.37886719 13.63539063 9.28507813 14.5 10.21875 C15.37011719 11.12496094 16.24023438 12.03117188 17.13671875 12.96484375 C19.27635528 15.19853023 21.39071928 17.45637633 23.5 19.71875 C23.83 13.44875 24.16 7.17875 24.5 0.71875 C26.975 1.21375 26.975 1.21375 29.5 1.71875 C31.61689593 5.95254186 30.68493005 11.56714782 30.6875 16.21875 C30.69974609 17.38535156 30.71199219 18.55195313 30.72460938 19.75390625 C30.72654297 20.86636719 30.72847656 21.97882812 30.73046875 23.125 C30.73457764 24.14916016 30.73868652 25.17332031 30.74291992 26.22851562 C30.5 28.71875 30.5 28.71875 28.5 30.71875 C25.16661408 31.40328461 23.68857115 31.62368672 20.5 30.71875 C16.73990334 27.95450558 13.66383258 24.63530039 10.5 21.21875 C9.62988281 20.31253906 8.75976562 19.40632813 7.86328125 18.47265625 C5.72364472 16.23896977 3.60928072 13.98112367 1.5 11.71875 C1.17 17.98875 0.84 24.25875 0.5 30.71875 C-4.5 29.71875 -4.5 29.71875 -5.5 28.71875 C-5.75342236 24.41227364 -5.68522638 20.09429946 -5.6875 15.78125 C-5.70586914 13.95303711 -5.70586914 13.95303711 -5.72460938 12.08789062 C-5.72654297 10.92580078 -5.72847656 9.76371094 -5.73046875 8.56640625 C-5.73457764 7.49398682 -5.73868652 6.42156738 -5.74291992 5.31665039 C-5.35318028 1.1485906 -3.98961782 0.81929652 0 0 Z " fill="#006CAC" transform="translate(201.5,0.28125)"/>
<path d="M0 0 C1.11858398 0.00326294 1.11858398 0.00326294 2.25976562 0.0065918 C4.5382459 0.00975365 6.81543021 -0.01370955 9.09375 -0.0390625 C10.53645669 -0.04133525 11.97916688 -0.0420391 13.421875 -0.04101562 C15.39800781 -0.04548706 15.39800781 -0.04548706 17.4140625 -0.05004883 C18.44789063 0.07281494 19.48171875 0.19567871 20.546875 0.32226562 C22.546875 3.32226562 22.546875 3.32226562 22.546875 6.32226562 C12.646875 6.32226562 2.746875 6.32226562 -7.453125 6.32226562 C-7.453125 12.26226563 -7.453125 18.20226563 -7.453125 24.32226562 C0.466875 24.32226562 8.386875 24.32226562 16.546875 24.32226562 C16.546875 22.34226562 16.546875 20.36226562 16.546875 18.32226562 C14.566875 18.32226562 12.586875 18.32226562 10.546875 18.32226562 C10.546875 16.34226562 10.546875 14.36226562 10.546875 12.32226562 C12.17106245 12.24135592 13.79639245 12.18311567 15.421875 12.13476562 C16.32679688 12.09996094 17.23171875 12.06515625 18.1640625 12.02929688 C19.34355469 12.17431641 19.34355469 12.17431641 20.546875 12.32226562 C22.93542324 15.90508798 22.81586302 17.63619595 22.796875 21.88476562 C22.80460937 23.61919922 22.80460937 23.61919922 22.8125 25.38867188 C22.546875 28.32226563 22.546875 28.32226563 20.546875 30.32226562 C17.4140625 30.58105469 17.4140625 30.58105469 13.421875 30.58789062 C12.7191748 30.58980408 12.01647461 30.59171753 11.29248047 30.59368896 C9.80631146 30.59505038 8.32013055 30.59135695 6.83398438 30.58300781 C4.55571854 30.57230716 2.27824123 30.58290402 0 30.59570312 C-1.44271008 30.59438152 -2.88541966 30.59181911 -4.328125 30.58789062 C-5.64554687 30.58563477 -6.96296875 30.58337891 -8.3203125 30.58105469 C-11.453125 30.32226562 -11.453125 30.32226562 -13.453125 28.32226562 C-13.71191406 25.74023438 -13.71191406 25.74023438 -13.71875 22.50976562 C-13.72132812 21.3521875 -13.72390625 20.19460937 -13.7265625 19.00195312 C-13.71882813 17.78765625 -13.71109375 16.57335937 -13.703125 15.32226562 C-13.71085937 14.10796875 -13.71859375 12.89367187 -13.7265625 11.64257812 C-13.72398438 10.485 -13.72140625 9.32742187 -13.71875 8.13476562 C-13.71649414 7.06871094 -13.71423828 6.00265625 -13.71191406 4.90429688 C-13.01696948 -2.0294144 -5.33154072 0.02060896 0 0 Z " fill="#006CAC" transform="translate(113.453125,0.677734375)"/>
<path d="M0 0 C4.8060354 -0.06880326 9.61036869 -0.1285532 14.41650391 -0.16479492 C16.05197941 -0.17989911 17.68741429 -0.20038389 19.32275391 -0.22631836 C21.67100024 -0.26263145 24.01871205 -0.27970932 26.3671875 -0.29296875 C27.10057343 -0.30845261 27.83395935 -0.32393646 28.58956909 -0.33988953 C30.65185547 -0.34057617 30.65185547 -0.34057617 34 0 C36.38854824 3.58282235 36.26898802 5.31393033 36.25 9.5625 C36.25773437 11.29693359 36.25773437 11.29693359 36.265625 13.06640625 C36 16 36 16 34 18 C34.66 18.99 35.32 19.98 36 21 C36.1953125 23.26171875 36.1953125 23.26171875 36.125 25.6875 C36.10695312 26.49574219 36.08890625 27.30398437 36.0703125 28.13671875 C36.04710937 28.75160156 36.02390625 29.36648437 36 30 C34.02 30 32.04 30 30 30 C30 28.02 30 26.04 30 24 C28.95199219 24.03480469 28.95199219 24.03480469 27.8828125 24.0703125 C26.51769531 24.09738281 26.51769531 24.09738281 25.125 24.125 C23.76761719 24.15980469 23.76761719 24.15980469 22.3828125 24.1953125 C20 24 20 24 18 22 C17.734375 20.125 17.734375 20.125 17.75 18 C17.74484375 17.29875 17.7396875 16.5975 17.734375 15.875 C18 14 18 14 20 12 C22.3828125 11.8046875 22.3828125 11.8046875 25.125 11.875 C26.03507812 11.89304687 26.94515625 11.91109375 27.8828125 11.9296875 C28.58148438 11.95289063 29.28015625 11.97609375 30 12 C30 10.02 30 8.04 30 6 C22.08 6 14.16 6 6 6 C6 13.92 6 21.84 6 30 C4.02 30 2.04 30 0 30 C0 20.1 0 10.2 0 0 Z " fill="#006CAC" transform="translate(52,1)"/>
<path d="M0 0 C0.91120605 0.01047363 1.82241211 0.02094727 2.76123047 0.03173828 C3.74736328 0.03818359 4.73349609 0.04462891 5.74951172 0.05126953 C7.29832031 0.07640625 7.29832031 0.07640625 8.87841797 0.10205078 C9.91869141 0.11107422 10.95896484 0.12009766 12.03076172 0.12939453 C14.60520889 0.15301331 17.17920009 0.18594929 19.75341797 0.22705078 C19.09341797 2.20705078 18.43341797 4.18705078 17.75341797 6.22705078 C12.47341797 6.22705078 7.19341797 6.22705078 1.75341797 6.22705078 C1.75341797 12.16705078 1.75341797 18.10705078 1.75341797 24.22705078 C3.73341797 24.22705078 5.71341797 24.22705078 7.75341797 24.22705078 C7.09341797 26.20705078 6.43341797 28.18705078 5.75341797 30.22705078 C-0.30126953 30.42236328 -0.30126953 30.42236328 -2.24658203 30.22705078 C-4.93145368 27.54217913 -4.50427653 26.16228097 -4.51220703 22.41455078 C-4.51478516 21.25697266 -4.51736328 20.09939453 -4.52001953 18.90673828 C-4.51228516 17.69244141 -4.50455078 16.47814453 -4.49658203 15.22705078 C-4.50431641 14.01275391 -4.51205078 12.79845703 -4.52001953 11.54736328 C-4.51744141 10.38978516 -4.51486328 9.23220703 -4.51220703 8.03955078 C-4.50995117 6.97349609 -4.50769531 5.90744141 -4.50537109 4.80908203 C-4.16966357 1.45960772 -3.41839404 0.34547995 0 0 Z " fill="#006CAC" transform="translate(152.24658203125,0.77294921875)"/>
<path d="M0 0 C2.375 -0.1875 2.375 -0.1875 5 0 C7.27531766 3.41297648 7.25674679 4.68130905 7.265625 8.69140625 C7.26949219 10.35526367 7.26949219 10.35526367 7.2734375 12.05273438 C7.26570313 13.21095703 7.25796875 14.36917969 7.25 15.5625 C7.25773437 16.72458984 7.26546875 17.88667969 7.2734375 19.08398438 C7.27085937 20.19193359 7.26828125 21.29988281 7.265625 22.44140625 C7.26336914 23.45920166 7.26111328 24.47699707 7.25878906 25.52563477 C7 28 7 28 5 30 C3.02880859 30.22705078 3.02880859 30.22705078 0.6484375 30.1953125 C-0.20234375 30.18886719 -1.053125 30.18242187 -1.9296875 30.17578125 C-3.26386719 30.15064453 -3.26386719 30.15064453 -4.625 30.125 C-5.97078125 30.11146484 -5.97078125 30.11146484 -7.34375 30.09765625 C-9.56276586 30.0740497 -11.78125077 30.0411231 -14 30 C-13.34 28.02 -12.68 26.04 -12 24 C-7.71 24 -3.42 24 1 24 C1 18.06 1 12.12 1 6 C0.01 6 -0.98 6 -2 6 C-1.34 4.02 -0.68 2.04 0 0 Z " fill="#006CAC" transform="translate(177,1)"/>
<path d="M0 0 C11.88 0 23.76 0 36 0 C35 5 35 5 34 6 C31.64771681 6.11317284 29.32588052 6.16416537 26.97265625 6.16796875 C25.91648354 6.17296135 25.91648354 6.17296135 24.838974 6.17805481 C23.34683894 6.18312655 21.8546925 6.18546306 20.36254883 6.18530273 C18.07549393 6.18748759 15.78892247 6.20563549 13.50195312 6.22460938 C12.05468916 6.22754354 10.60742289 6.22952818 9.16015625 6.23046875 C8.47365494 6.23765427 7.78715363 6.24483978 7.07984924 6.25224304 C2.22882369 6.22882369 2.22882369 6.22882369 0 4 C0 2.68 0 1.36 0 0 Z " fill="#006CAC" transform="translate(4,25)"/>
<path d="M0 0 C11.88 0 23.76 0 36 0 C35 5 35 5 34 6 C31.64771681 6.11317284 29.32588052 6.16416537 26.97265625 6.16796875 C25.91648354 6.17296135 25.91648354 6.17296135 24.838974 6.17805481 C23.34683894 6.18312655 21.8546925 6.18546306 20.36254883 6.18530273 C18.07549393 6.18748759 15.78892247 6.20563549 13.50195312 6.22460938 C12.05468916 6.22754354 10.60742289 6.22952818 9.16015625 6.23046875 C8.47365494 6.23765427 7.78715363 6.24483978 7.07984924 6.25224304 C2.22882369 6.22882369 2.22882369 6.22882369 0 4 C0 2.68 0 1.36 0 0 Z " fill="#006CAC" transform="translate(4,13)"/>
<path d="M0 0 C11.88 0 23.76 0 36 0 C35 5 35 5 34 6 C31.64771681 6.11317284 29.32588052 6.16416537 26.97265625 6.16796875 C25.91648354 6.17296135 25.91648354 6.17296135 24.838974 6.17805481 C23.34683894 6.18312655 21.8546925 6.18546306 20.36254883 6.18530273 C18.07549393 6.18748759 15.78892247 6.20563549 13.50195312 6.22460938 C12.05468916 6.22754354 10.60742289 6.22952818 9.16015625 6.23046875 C8.47365494 6.23765427 7.78715363 6.24483978 7.07984924 6.25224304 C2.22882369 6.22882369 2.22882369 6.22882369 0 4 C0 2.68 0 1.36 0 0 Z " fill="#006CAC" transform="translate(4,1)"/>
</svg>
